# xmcd CD database file
#
# Track frame offsets:
#	150
#	27490
#	135122
#	193384
#	221017
#	259882
#	279664
#	309229
#
# Disc length: 4291 seconds
#
# Revision: 0
# Processed by: cddbd v1.4PL0 Copyright (c) Steve Scherf et al.
# Submitted via: CDex 1.50
#
DISCID=7610c108
DTITLE=The Monks Chants - Mantras Meditative Lamas CD-02
DYEAR=2003
DGENRE=New Age
TTITLE0=Rain of blessings
TTITLE1=Mantra of avalokiteshvara
TTITLE2=The sounds of the voice
TTITLE3=Offering of the universe
TTITLE4=An aspiration to enlightenment
TTITLE5=A propitiatory prayer
TTITLE6=To palden lhamo
TTITLE7=Invocations of the five emanations
EXTD=YEAR: 2003
EXTT0=
EXTT1=
EXTT2=
EXTT3=
EXTT4=
EXTT5=
EXTT6=
EXTT7=
PLAYORDER=
